<?xml version="1.0" encoding="UTF-8"?>
<!DOCTYPE svg PUBLIC "-//W3C//DTD SVG 1.1//EN" "http://www.w3.org/Graphics/SVG/1.1/DTD/svg11.dtd">
<!-- Creator: CorelDRAW 2017 -->
<svg xmlns="http://www.w3.org/2000/svg" xml:space="preserve" width="376px" height="330px" version="1.1" style="shape-rendering:geometricPrecision; text-rendering:geometricPrecision; image-rendering:optimizeQuality; fill-rule:evenodd; clip-rule:evenodd"
viewBox="0 0 26.98 28.71"
 xmlns:xlink="http://www.w3.org/1999/xlink">
 <defs>
  <style type="text/css">
   <![CDATA[
    .fil0 {fill:#FDC6A5;fill-rule:nonzero}
   ]]>
  </style>
 </defs>
 <g id="Layer_x0020_1">
  <metadata id="CorelCorpID_0Corel-Layer"/>
  <path class="fil0" d="M26.98 23.38l-0.19 1.1c-0.47,0.04 -0.87,0.06 -1.21,0.06 -0.5,0 -1.1,-0.03 -1.81,-0.11 -1.2,-0.11 -1.97,-0.17 -2.29,-0.17 -0.54,0 -1.37,0.08 -2.48,0.24 0.4,-1 0.73,-2.04 1,-3.14 0.2,-0.78 0.4,-2.13 0.62,-4.03 -1.48,-0.01 -3.78,0.01 -6.89,0.08 -3.28,4.98 -5.69,8.11 -7.21,9.39 -1.52,1.28 -2.98,1.92 -4.35,1.92 -0.72,0 -1.26,-0.14 -1.61,-0.42 -0.35,-0.28 -0.53,-0.64 -0.53,-1.08 0,-0.34 0.11,-0.62 0.31,-0.84 0.2,-0.22 0.46,-0.33 0.77,-0.33 0.18,0 0.42,0.03 0.73,0.11 0.77,0.19 1.28,0.29 1.54,0.29 0.86,0 1.8,-0.49 2.84,-1.46 1.68,-1.59 4.17,-4.93 7.46,-10.01 3.72,-5.75 6.74,-9.94 9.04,-12.56 -3.13,0.29 -5.09,0.56 -5.86,0.82 -1.06,0.35 -1.86,0.86 -2.4,1.54 -0.53,0.68 -0.8,1.37 -0.8,2.07 0,0.23 0.09,0.56 0.25,0.98 0.18,0.47 0.26,0.82 0.26,1.04 0,0.28 -0.11,0.53 -0.33,0.75 -0.22,0.22 -0.48,0.33 -0.79,0.33 -0.44,0 -0.79,-0.16 -1.05,-0.49 -0.26,-0.32 -0.39,-0.81 -0.39,-1.46 0,-0.93 0.24,-1.82 0.72,-2.68 0.48,-0.86 1.17,-1.59 2.07,-2.17 0.9,-0.58 2.02,-1.03 3.37,-1.34 0.7,-0.16 1.92,-0.31 3.66,-0.44 1.52,-0.12 2.47,-0.25 2.86,-0.36 0.61,-0.17 1.19,-0.49 1.75,-0.98 -0.39,1.58 -0.67,2.96 -0.83,4.14l-1.52 11.13 -0.87 7.97c0.95,0.21 1.8,0.31 2.56,0.31 0.51,0 1.05,-0.06 1.64,-0.17zm-6.2 -7.51c0.62,-5.2 1.23,-9 1.84,-11.39 -1.6,2.17 -2.59,3.54 -2.98,4.11l-4.89 7.29c1.04,0.04 2.54,0.06 4.49,0.06 0.48,0 0.99,-0.02 1.54,-0.06z"/>
 </g>
</svg>
