<?xml version="1.0" encoding="UTF-8"?>
<!DOCTYPE svg PUBLIC "-//W3C//DTD SVG 1.1//EN" "http://www.w3.org/Graphics/SVG/1.1/DTD/svg11.dtd">
<!-- Creator: CorelDRAW 2017 -->
<svg xmlns="http://www.w3.org/2000/svg" xml:space="preserve" width="14.2409mm" height="11.7318mm" version="1.1" style="shape-rendering:geometricPrecision; text-rendering:geometricPrecision; image-rendering:optimizeQuality; fill-rule:evenodd; clip-rule:evenodd"
viewBox="0 0 13.41 11.05"
 xmlns:xlink="http://www.w3.org/1999/xlink">
 <defs>
  <style type="text/css">
   <![CDATA[
    .str1 {stroke:#2B2A29;stroke-width:0.46;stroke-miterlimit:22.9256}
    .str0 {stroke:#2B2A29;stroke-width:0.46;stroke-linecap:round;stroke-linejoin:bevel;stroke-miterlimit:22.9256}
    .fil1 {fill:none}
    .fil0 {fill:#ED6E1E}
    .fil2 {fill:#2B2A29;fill-rule:nonzero}
   ]]>
  </style>
 </defs>
 <g id="Слой_x0020_1">
  <metadata id="CorelCorpID_0Corel-Layer"/>
  <g id="_2305806722592">
   <path class="fil0" d="M8.15 0.35c2.91,0 5.26,2.36 5.26,5.26 0,2.91 -2.36,5.26 -5.26,5.26 -2.91,0 -5.26,-2.36 -5.26,-5.26 0,-2.91 2.36,-5.26 5.26,-5.26z"/>
   <path class="fil1 str0" d="M1.63 4.27c-0.12,0.49 -0.17,1 -0.14,1.51 0.14,2.92 2.63,5.17 5.55,5.03 2.92,-0.14 5.17,-2.63 5.03,-5.55 -0.14,-2.92 -2.62,-5.17 -5.55,-5.03 -1.44,0.07 -2.79,0.72 -3.73,1.81"/>
   <polyline class="fil1 str1" points="2.42,5.95 1.71,3.93 0.16,5.4 "/>
   <path class="fil2" d="M5 4.67c0,0.27 0.02,0.47 0.07,0.6 0.05,0.13 0.12,0.2 0.23,0.2 0.2,0 0.3,-0.27 0.3,-0.8 0,-0.53 -0.1,-0.79 -0.3,-0.79 -0.11,0 -0.18,0.07 -0.23,0.2 -0.05,0.13 -0.07,0.33 -0.07,0.6zm1.41 -0.01c0,0.49 -0.09,0.85 -0.28,1.1 -0.19,0.24 -0.47,0.37 -0.83,0.37 -0.35,0 -0.62,-0.13 -0.81,-0.38 -0.19,-0.25 -0.28,-0.61 -0.28,-1.09 0,-0.97 0.37,-1.45 1.09,-1.45 0.36,0 0.63,0.13 0.83,0.38 0.19,0.25 0.29,0.61 0.29,1.07zm2.19 -1.39l-2.58 4.64 -0.76 0 2.58 -4.64 0.76 0zm-0.34 3.25c0,0.27 0.02,0.47 0.07,0.6 0.05,0.13 0.12,0.2 0.23,0.2 0.2,0 0.3,-0.27 0.3,-0.8 0,-0.53 -0.1,-0.79 -0.3,-0.79 -0.11,0 -0.18,0.07 -0.23,0.2 -0.05,0.13 -0.07,0.33 -0.07,0.6zm1.41 -0.01c0,0.48 -0.09,0.85 -0.28,1.09 -0.19,0.25 -0.47,0.37 -0.83,0.37 -0.35,0 -0.62,-0.13 -0.81,-0.38 -0.19,-0.25 -0.29,-0.61 -0.29,-1.09 0,-0.97 0.37,-1.45 1.1,-1.45 0.36,0 0.63,0.13 0.82,0.38 0.19,0.25 0.29,0.61 0.29,1.08z"/>
  </g>
 </g>
</svg>
