<?xml version="1.0" encoding="utf-8"?>
<!-- Generator: Adobe Illustrator 21.1.0, SVG Export Plug-In . SVG Version: 6.00 Build 0)  -->
<svg version="1.1" id="Слой_1" xmlns="http://www.w3.org/2000/svg" xmlns:xlink="http://www.w3.org/1999/xlink" x="0px" y="0px"
	 viewBox="0 0 49 38" style="enable-background:new 0 0 49 38;" xml:space="preserve">
<style type="text/css">
	.st0{clip-path:url(#SVGID_2_);fill:#ED6B06;}
</style>
<g>
	<defs>
		<rect id="SVGID_1_" x="7" y="8.5" width="34.1" height="25.4"/>
	</defs>
	<clipPath id="SVGID_2_">
		<use xlink:href="#SVGID_1_"  style="overflow:visible;"/>
	</clipPath>
	<path class="st0" d="M28.7,14.3c-2.2,2.7-3.3,5.6-3.3,8.6c0,2.8,0.8,5.3,2.4,7.5c1.6,2.3,3.7,3.4,6.4,3.4c2.1,0,3.7-0.7,5-2
		c1.3-1.3,1.9-2.9,1.9-4.8c0-1.7-0.6-3.1-1.7-4.3c-1.2-1.1-2.5-1.7-4-1.7c-1.8,0-3.1,0.7-4,2c-0.4,0.6-0.7,0.9-1,0.9
		c-0.8,0-1.2-0.8-1.2-2.4c0-5.1,3.4-8.7,10.1-10.8l-0.5-2.3C34.3,9.7,30.9,11.7,28.7,14.3 M10.3,14.3C8.1,17,7,19.9,7,23
		c0,2.8,0.8,5.3,2.4,7.5c1.6,2.2,3.7,3.4,6.4,3.4c2.1,0,3.8-0.7,5-2c1.2-1.3,1.9-2.9,1.9-4.8c0-1.7-0.6-3.1-1.7-4.3
		c-1.2-1.1-2.5-1.7-3.9-1.7c-1.8,0-3.1,0.7-4,2c-0.4,0.6-0.7,0.9-1,0.9c-0.8,0-1.2-0.8-1.2-2.4c0-5.1,3.4-8.7,10.1-10.8l-0.5-2.3
		C15.9,9.7,12.5,11.7,10.3,14.3"/>
</g>
</svg>
