<?xml version="1.0" encoding="UTF-8"?>
<!DOCTYPE svg PUBLIC "-//W3C//DTD SVG 1.1//EN" "http://www.w3.org/Graphics/SVG/1.1/DTD/svg11.dtd">
<!-- Creator: CorelDRAW 2017 -->
<svg xmlns="http://www.w3.org/2000/svg" xml:space="preserve" width="376px" height="330px" version="1.1" style="shape-rendering:geometricPrecision; text-rendering:geometricPrecision; image-rendering:optimizeQuality; fill-rule:evenodd; clip-rule:evenodd"
viewBox="0 0 17.21 15.02"
 xmlns:xlink="http://www.w3.org/1999/xlink">
 <defs>
  <style type="text/css">
   <![CDATA[
    .fil0 {fill:#FDC6A5;fill-rule:nonzero}
   ]]>
  </style>
 </defs>
 <g id="Layer_x0020_1">
  <metadata id="CorelCorpID_0Corel-Layer"/>
  <path class="fil0" d="M6.27 2.95l0.12 -0.53c0.89,-0.07 1.94,-0.25 3.16,-0.53 -0.35,0.91 -0.66,1.95 -0.93,3.11l-0.81 3.44c-0.58,2.48 -1.23,4.36 -1.96,5.62 0.71,0.13 1.33,0.2 1.87,0.2 1.44,0 2.68,-0.3 3.75,-0.9 1.06,-0.6 1.91,-1.49 2.54,-2.64 0.63,-1.16 0.94,-2.44 0.94,-3.83 0,-1.83 -0.53,-3.3 -1.6,-4.41 -1.07,-1.11 -2.46,-1.67 -4.19,-1.67 -1.45,0 -2.82,0.34 -4.11,1.04 -1.29,0.69 -2.31,1.6 -3.06,2.74 -0.75,1.14 -1.13,2.25 -1.13,3.33 0,1.05 0.46,1.82 1.39,2.32 0.26,0.15 0.43,0.27 0.51,0.38 0.08,0.1 0.12,0.24 0.12,0.39 0,0.19 -0.08,0.37 -0.23,0.52 -0.15,0.15 -0.33,0.23 -0.52,0.23 -0.44,0 -0.86,-0.29 -1.28,-0.86 -0.56,-0.81 -0.84,-1.63 -0.84,-2.47 0,-1.41 0.42,-2.78 1.26,-4.09 0.84,-1.31 2.02,-2.36 3.51,-3.14 1.5,-0.78 3.17,-1.17 5.01,-1.17 2.27,0 4.07,0.6 5.41,1.82 1.34,1.21 2.01,2.73 2.01,4.56 0,1.7 -0.47,3.26 -1.4,4.69 -0.93,1.42 -2.06,2.44 -3.39,3.04 -1.32,0.6 -2.65,0.91 -3.96,0.91 -0.43,0 -1.17,-0.04 -2.22,-0.13 -0.88,-0.07 -1.73,-0.1 -2.52,-0.1 -0.37,0 -0.93,0.01 -1.68,0.03l0.29 -0.6c0.75,-0.04 1.22,-0.11 1.41,-0.2 0.18,-0.09 0.34,-0.24 0.47,-0.45 0.24,-0.38 0.56,-1.2 0.97,-2.46l0.85 -3.22 0.98 -4.02c0.05,-0.2 0.08,-0.37 0.08,-0.51 0,-0.13 -0.04,-0.24 -0.12,-0.31 -0.08,-0.08 -0.2,-0.12 -0.34,-0.12 -0.06,0 -0.17,0.01 -0.34,0.04z"/>
 </g>
</svg>
