<?xml version="1.0" encoding="UTF-8"?>
<!DOCTYPE svg PUBLIC "-//W3C//DTD SVG 1.1//EN" "http://www.w3.org/Graphics/SVG/1.1/DTD/svg11.dtd">
<!-- Creator: CorelDRAW 2017 -->
<svg xmlns="http://www.w3.org/2000/svg" xml:space="preserve" width="376px" height="330px"  version="1.1" style="shape-rendering:geometricPrecision; text-rendering:geometricPrecision; image-rendering:optimizeQuality; fill-rule:evenodd; clip-rule:evenodd"
viewBox="0 0 51.16 39.52"
 xmlns:xlink="http://www.w3.org/1999/xlink">
 <defs>
  <style type="text/css">
   <![CDATA[
    .fil0 {fill:#FDC6A5;fill-rule:nonzero}
   ]]>
  </style>
 </defs>
 <g id="Layer_x0020_1">
  <metadata id="CorelCorpID_0Corel-Layer"/>
  <path class="fil0" d="M38.58 36.39l-0.35 1.65c-0.99,0.12 -1.73,0.18 -2.26,0.18 -0.83,0 -1.93,-0.07 -3.3,-0.21 -1.47,-0.14 -2.72,-0.21 -3.76,-0.21 -0.84,0 -1.69,0.14 -2.58,0.41 0.75,-2.23 1.63,-5.32 2.66,-9.26l2.29 -8.65 -7.77 0.29c-1.37,0.07 -2.77,0.18 -4.2,0.31 -1.33,5.14 -2.69,8.95 -4.08,11.41 -1.39,2.47 -2.97,4.28 -4.76,5.45 -1.78,1.17 -3.5,1.75 -5.13,1.75 -1.6,0 -2.96,-0.38 -4.11,-1.15 -0.83,-0.54 -1.24,-1.21 -1.24,-2.02 0,-0.48 0.17,-0.9 0.49,-1.23 0.32,-0.33 0.72,-0.5 1.18,-0.5 0.75,0 1.52,0.52 2.3,1.58 0.47,0.64 0.87,1.04 1.16,1.22 0.3,0.19 0.63,0.28 0.99,0.28 1.5,0 2.9,-1.21 4.22,-3.63 1.31,-2.42 3.24,-8.42 5.78,-17.99l2.83 -10.58c-3.85,0 -6.74,0.64 -8.67,1.91 -1.94,1.27 -2.9,2.71 -2.9,4.3 0,0.54 0.26,1.22 0.78,2.05 0.46,0.78 0.7,1.4 0.7,1.88 0,0.56 -0.18,1.02 -0.53,1.38 -0.35,0.35 -0.8,0.53 -1.34,0.53 -0.67,0 -1.24,-0.33 -1.72,-0.97 -0.48,-0.65 -0.72,-1.59 -0.72,-2.82 0,-2.23 0.81,-4.2 2.42,-5.92 1.61,-1.71 3.96,-2.92 7.03,-3.63 1.77,-0.4 5.3,-0.61 10.59,-0.61 -1.4,2.83 -2.96,7.79 -4.7,14.89 5.08,0 9.09,-0.2 12.01,-0.59 1.63,-5.54 3.09,-9.42 4.36,-11.64 1.27,-2.21 2.7,-3.8 4.28,-4.79 1.6,-0.98 3.37,-1.48 5.33,-1.48 1.69,0 3,0.33 3.92,0.99 0.92,0.65 1.37,1.41 1.37,2.24 0,0.49 -0.17,0.89 -0.49,1.2 -0.33,0.32 -0.75,0.47 -1.27,0.47 -0.68,0 -1.44,-0.49 -2.28,-1.48 -0.87,-0.98 -1.64,-1.48 -2.31,-1.48 -1.45,0 -2.88,1.35 -4.28,4.04 -2.49,4.78 -5.38,14.85 -8.65,30.23 0.32,0.04 0.79,0.1 1.38,0.2 1.1,0.19 1.98,0.28 2.66,0.28 0.79,0 1.68,-0.1 2.68,-0.3z"/>
 </g>
</svg>
