<?xml version="1.0" encoding="UTF-8"?>
<!DOCTYPE svg PUBLIC "-//W3C//DTD SVG 1.1//EN" "http://www.w3.org/Graphics/SVG/1.1/DTD/svg11.dtd">
<!-- Creator: CorelDRAW 2017 -->
<svg xmlns="http://www.w3.org/2000/svg" xml:space="preserve" width="376px" height="330px" version="1.1" style="shape-rendering:geometricPrecision; text-rendering:geometricPrecision; image-rendering:optimizeQuality; fill-rule:evenodd; clip-rule:evenodd"
viewBox="0 0 39.49 30.59"
 xmlns:xlink="http://www.w3.org/1999/xlink">
 <defs>
  <style type="text/css">
   <![CDATA[
    .fil0 {fill:#FDC6A5;fill-rule:nonzero}
   ]]>
  </style>
 </defs>
 <g id="Layer_x0020_1">
  <metadata id="CorelCorpID_0Corel-Layer"/>
  <path class="fil0" d="M0.27 23.46c1.21,-0.26 2.07,-0.57 2.57,-0.94 0.5,-0.36 1.54,-1.48 3.12,-3.37 4.71,-5.65 7.74,-8.8 9.06,-9.44 -0.41,-0.48 -1.08,-1.39 -2,-2.73 -1.85,-2.72 -3.15,-4.41 -3.9,-5.06 -0.76,-0.66 -1.64,-1.13 -2.64,-1.4l0.16 -0.51c1.38,0.17 2.66,0.25 3.85,0.25 1.06,0 2.54,-0.08 4.42,-0.25l-0.35 1.13c-1.17,0.01 -1.97,0.07 -2.41,0.17 -0.43,0.11 -0.64,0.29 -0.64,0.55 0,0.6 0.91,2.14 2.73,4.6 1.81,2.47 2.99,3.77 3.54,3.9l1.76 -6.68c0.15,-0.54 0.22,-0.92 0.22,-1.15 0,-0.61 -0.3,-0.91 -0.9,-0.91 -0.11,0 -0.24,0.02 -0.41,0.06l0.25 -0.88c2.13,-0.17 3.86,-0.44 5.18,-0.8 -0.55,1.43 -1.5,4.89 -2.88,10.36 0.42,-0.04 2.34,-1.38 5.76,-4.03 3.41,-2.65 5.12,-4.22 5.12,-4.71 0,-0.29 -0.92,-0.45 -2.74,-0.49l0.27 -1.13c1.82,0.17 3.26,0.25 4.33,0.25 1.2,0 2.53,-0.08 4,-0.25l-0.1 0.51c-1.08,0.26 -1.97,0.59 -2.67,0.98 -0.7,0.38 -1.71,1.15 -3.05,2.31 -2.99,2.56 -5.71,4.74 -8.18,6.57 0.7,0.73 1.24,1.52 1.62,2.37 0.38,0.85 0.93,2.57 1.67,5.18 0.91,3.22 1.66,5.53 2.27,6.91 0.61,1.38 1.42,2.48 2.42,3.29 1,0.81 1.95,1.22 2.85,1.22 1.13,0 1.9,-0.59 2.31,-1.78 0.23,-0.66 0.45,-1.09 0.64,-1.3 0.2,-0.21 0.47,-0.31 0.81,-0.31 0.32,0 0.59,0.11 0.84,0.34 0.24,0.22 0.36,0.5 0.36,0.83 0,0.78 -0.48,1.57 -1.45,2.34 -0.97,0.77 -2.2,1.15 -3.7,1.15 -1.63,0 -3.13,-0.51 -4.51,-1.52 -1.37,-1.02 -2.48,-2.41 -3.33,-4.16 -0.85,-1.76 -1.75,-4.22 -2.71,-7.39 -0.67,-2.21 -1.18,-3.67 -1.52,-4.39 -0.34,-0.71 -0.83,-1.43 -1.49,-2.18l-2.15 8.33c-0.48,1.9 -0.75,3.1 -0.78,3.62 0.88,0.39 1.71,0.59 2.49,0.59l0.76 -0.04 -0.29 1.01 -0.51 0.02c-0.44,0 -1.07,-0.05 -1.9,-0.14 -0.89,-0.09 -1.6,-0.13 -2.13,-0.13 -1.27,0 -3.12,0.22 -5.54,0.67l0.12 -0.97c2.05,-0.34 3.32,-1.16 3.79,-2.45 0.48,-1.29 1.47,-4.79 2.97,-10.51 -1.23,0.62 -3.3,2.61 -6.22,5.99 -2.92,3.37 -4.8,5.8 -5.65,7.27 -0.83,-0.04 -1.49,-0.06 -1.97,-0.06 -1.11,0 -2.36,0.15 -3.77,0.44l0.27 -1.13z"/>
 </g>
</svg>
