<?xml version="1.0" encoding="UTF-8"?>
<!DOCTYPE svg PUBLIC "-//W3C//DTD SVG 1.1//EN" "http://www.w3.org/Graphics/SVG/1.1/DTD/svg11.dtd">
<!-- Creator: CorelDRAW 2017 -->
<svg xmlns="http://www.w3.org/2000/svg" xml:space="preserve" width="376px" height="330px" version="1.1" style="shape-rendering:geometricPrecision; text-rendering:geometricPrecision; image-rendering:optimizeQuality; fill-rule:evenodd; clip-rule:evenodd"
viewBox="0 0 26.04 26.7"
 xmlns:xlink="http://www.w3.org/1999/xlink">
 <defs>
  <style type="text/css">
   <![CDATA[
    .fil0 {fill:#FDC6A5;fill-rule:nonzero}
   ]]>
  </style>
 </defs>
 <g id="Layer_x0020_1">
  <metadata id="CorelCorpID_0Corel-Layer"/>
  <path class="fil0" d="M24.51 0.07l-0.11 0.44c-0.96,0.24 -1.75,0.54 -2.39,0.89 -0.63,0.36 -1.48,1 -2.54,1.95 -2.86,2.49 -5.34,4.41 -7.46,5.74 0.61,0.75 1.13,1.59 1.55,2.51 0.43,0.93 1.17,3.07 2.23,6.41 0.95,2.99 1.92,5 2.91,6.05 0.99,1.05 1.99,1.57 3.02,1.57 0.99,0 1.66,-0.52 2.01,-1.57 0.21,-0.61 0.4,-1 0.55,-1.14 0.21,-0.19 0.45,-0.29 0.71,-0.29 0.29,0 0.53,0.1 0.73,0.29 0.2,0.19 0.3,0.43 0.3,0.71 0,0.71 -0.42,1.39 -1.27,2.06 -0.85,0.66 -1.91,1 -3.21,1 -1.12,0 -2.18,-0.29 -3.18,-0.85 -1,-0.57 -1.92,-1.46 -2.75,-2.68 -0.83,-1.22 -1.68,-3.11 -2.55,-5.67 -0.81,-2.42 -1.43,-4.07 -1.87,-4.97 -0.44,-0.9 -1.05,-1.84 -1.84,-2.84l-1.92 7.19c-0.39,1.46 -0.63,2.5 -0.72,3.12 0.8,0.35 1.52,0.52 2.16,0.52 0.15,0 0.37,-0.01 0.66,-0.04l-0.22 0.88c-0.24,0.01 -0.39,0.02 -0.44,0.02 -0.4,0 -0.95,-0.04 -1.67,-0.12 -0.75,-0.08 -1.38,-0.12 -1.86,-0.12 -0.99,0 -2.54,0.18 -4.68,0.55l0.1 -0.84c1.13,-0.23 1.93,-0.54 2.39,-0.94 0.46,-0.4 0.83,-1.02 1.1,-1.88 0.63,-1.92 1.45,-4.82 2.47,-8.67l2.18 -8.24c-2.36,0.14 -4.21,0.68 -5.58,1.6 -1.05,0.7 -1.58,1.48 -1.58,2.34 0,0.3 0.15,0.69 0.44,1.17 0.27,0.43 0.4,0.77 0.4,1.03 0,0.32 -0.12,0.6 -0.35,0.84 -0.24,0.24 -0.51,0.37 -0.83,0.37 -0.37,0 -0.69,-0.18 -0.98,-0.55 -0.29,-0.36 -0.43,-0.86 -0.43,-1.46 0,-1.66 0.82,-3.14 2.47,-4.47 1.65,-1.33 4.51,-1.99 8.6,-1.99l1.16 0c-0.65,1.71 -1.08,2.95 -1.28,3.71l-1.41 5.4c0.88,-0.33 1.91,-0.91 3.08,-1.71 1.17,-0.81 2.29,-1.66 3.38,-2.57 1.98,-1.67 3.12,-2.68 3.38,-3.04 0.08,-0.12 0.13,-0.23 0.13,-0.3 0,-0.1 -0.12,-0.18 -0.36,-0.26 -0.24,-0.08 -0.93,-0.13 -2.05,-0.15l0.22 -0.99c1.52,0.15 2.76,0.22 3.74,0.22 1,0 2.15,-0.07 3.46,-0.22z"/>
 </g>
</svg>
