<?xml version="1.0" encoding="UTF-8"?>
<!DOCTYPE svg PUBLIC "-//W3C//DTD SVG 1.1//EN" "http://www.w3.org/Graphics/SVG/1.1/DTD/svg11.dtd">
<!-- Creator: CorelDRAW 2017 -->
<svg xmlns="http://www.w3.org/2000/svg" xml:space="preserve" width="150.806mm" height="31.2199mm" version="1.1" style="shape-rendering:geometricPrecision; text-rendering:geometricPrecision; image-rendering:optimizeQuality; fill-rule:evenodd; clip-rule:evenodd"
viewBox="0 0 5744.65 1189.26"
 xmlns:xlink="http://www.w3.org/1999/xlink">
 <defs>
  <style type="text/css">
   <![CDATA[
    .fil5 {fill:#2B2A29}
    .fil7 {fill:#FFED00}
    .fil4 {fill:#EF7F1A}
    .fil3 {fill:#EA5E20}
    .fil6 {fill:#E31E24}
    .fil1 {fill:#5B5B5B;fill-rule:nonzero}
    .fil2 {fill:#5B5B5B;fill-rule:nonzero}
    .fil0 {fill:#EB6020;fill-rule:nonzero}
   ]]>
  </style>
 </defs>
 <g id="Слой_x0020_1">
  <metadata id="CorelCorpID_0Corel-Layer"/>
  <path class="fil0" d="M4077.88 193.38l44.76 0 0 69.26c7.46,-0.87 12.74,-3.16 15.84,-6.86 3.05,-3.7 6.81,-11.81 11.17,-24.34 5.77,-16.72 12.03,-27.34 18.89,-32.02 6.81,-4.69 15.74,-7.02 26.84,-7.02 3.43,0 9.31,0.27 17.75,0.82l0.16 29.57c-11.87,0 -19.44,1.09 -22.71,3.32 -3.32,2.34 -6.91,9.31 -10.73,20.91 -5.23,15.57 -12.8,25.21 -22.6,28.81 14.16,3.92 26.14,16.28 35.94,37.03 0.49,1.09 1.09,2.18 1.74,3.38l25.05 46.72 -48.19 0 -22.33 -49.17c-4.57,-9.91 -8.55,-16.28 -11.93,-19.11 -3.32,-2.83 -8.33,-4.25 -14.92,-4.25l0 72.53 -44.76 0 0 -169.56zm181.54 0l149.96 0 0 169.56 -44.76 0 0 -133.3 -60.77 0 0 76.29c0,19.39 -2.23,33 -6.7,40.84 -4.52,7.84 -9.48,12.96 -14.92,15.41 -5.39,2.45 -14.16,3.7 -26.19,3.7 -7.13,0 -16.6,-0.98 -28.31,-2.83l0 -32.95c0.98,0 3.49,0.11 7.52,0.33 4.68,0.33 8.33,0.49 10.89,0.49 6.1,0 9.8,-2.02 11.21,-5.99 1.36,-4.03 2.07,-15.13 2.07,-33.38l0 -98.18zm194.18 0l43.13 0 0 106.56 68.94 -106.56 44.11 0 0 169.56 -43.13 0 0 -108.09 -69.92 108.09 -43.13 0 0 -169.56zm200.17 0l44.76 0 0 62.08 64.69 0 0 -62.08 44.76 0 0 169.56 -44.76 0 0 -71.22 -64.69 0 0 71.22 -44.76 0 0 -169.56zm197.98 0l43.13 0 0 106.56 68.94 -106.56 44.11 0 0 169.56 -43.13 0 0 -108.09 -69.92 108.09 -43.13 0 0 -169.56zm200.17 0l44.76 0 0 69.26c7.46,-0.87 12.74,-3.16 15.84,-6.86 3.05,-3.7 6.81,-11.81 11.17,-24.34 5.77,-16.72 12.03,-27.34 18.89,-32.02 6.81,-4.69 15.74,-7.02 26.84,-7.02 3.43,0 9.31,0.27 17.75,0.82l0.16 29.57c-11.87,0 -19.44,1.09 -22.71,3.32 -3.32,2.34 -6.91,9.31 -10.73,20.91 -5.23,15.57 -12.8,25.21 -22.6,28.81 14.16,3.92 26.14,16.28 35.94,37.03 0.49,1.09 1.09,2.18 1.74,3.38l25.05 46.72 -48.19 0 -22.33 -49.17c-4.57,-9.91 -8.55,-16.28 -11.93,-19.11 -3.32,-2.83 -8.33,-4.25 -14.92,-4.25l0 72.53 -44.76 0 0 -169.56zm198.8 52.27l-40.51 -7.19c4.57,-16.56 12.47,-28.81 23.63,-36.76 11.17,-7.95 27.77,-11.93 49.77,-11.93 19.98,0 34.9,2.34 44.71,7.08 9.75,4.73 16.66,10.73 20.64,18.02 3.97,7.3 5.99,20.64 5.99,40.13l-0.65 52.27c0,14.86 0.7,25.87 2.12,32.94 1.42,7.08 4.08,14.65 8,22.71l-44.43 0c-1.14,-2.94 -2.61,-7.29 -4.3,-13.07 -0.71,-2.67 -1.25,-4.41 -1.58,-5.23 -7.62,7.52 -15.79,13.12 -24.5,16.88 -8.71,3.76 -17.97,5.66 -27.83,5.66 -17.37,0 -31.09,-4.74 -41.11,-14.21 -10.02,-9.42 -15.03,-21.4 -15.03,-35.88 0,-9.53 2.29,-18.08 6.86,-25.59 4.57,-7.46 10.94,-13.23 19.22,-17.21 8.22,-3.98 20.09,-7.46 35.61,-10.46 20.91,-3.92 35.45,-7.62 43.51,-11l0 -4.52c0,-8.71 -2.13,-14.92 -6.37,-18.68 -4.3,-3.7 -12.36,-5.55 -24.18,-5.55 -8,0 -14.21,1.58 -18.68,4.79 -4.52,3.16 -8.11,8.77 -10.89,16.77zm60.12 36.26c-5.72,1.9 -14.81,4.19 -27.28,6.86 -12.41,2.67 -20.58,5.28 -24.39,7.79 -5.82,4.19 -8.77,9.42 -8.77,15.79 0,6.32 2.34,11.71 7.02,16.28 4.68,4.57 10.62,6.86 17.86,6.86 8.06,0 15.79,-2.67 23.14,-7.95 5.39,-4.09 8.99,-8.99 10.67,-14.87 1.14,-3.81 1.74,-11.11 1.74,-21.83l0 -8.93zm-1232.95 267.58l44.76 0 0 62.08 64.69 0 0 -62.08 44.76 0 0 169.56 -44.76 0 0 -71.22 -64.69 0 0 71.22 -44.76 0 0 -169.56zm297.3 115.98l44.76 7.52c-5.72,16.39 -14.81,28.86 -27.17,37.46 -12.41,8.55 -27.93,12.85 -46.5,12.85 -29.46,0 -51.29,-9.64 -65.4,-28.91 -11.16,-15.47 -16.77,-34.96 -16.77,-58.54 0,-28.1 7.35,-50.15 22,-66.05 14.65,-15.96 33.21,-23.91 55.65,-23.91 25.16,0 45.03,8.33 59.62,25 14.54,16.66 21.51,42.2 20.86,76.61l-112.06 0c0.32,13.29 3.92,23.63 10.83,31.04 6.86,7.41 15.47,11.11 25.7,11.11 7.02,0 12.91,-1.9 17.64,-5.72 4.79,-3.81 8.38,-9.97 10.83,-18.46zm2.61 -45.41c-0.32,-13.02 -3.65,-22.92 -10.02,-29.68 -6.37,-6.81 -14.1,-10.18 -23.25,-10.18 -9.75,0 -17.81,3.59 -24.18,10.73 -6.37,7.13 -9.47,16.88 -9.37,29.13l66.81 0zm78.09 -70.57l55.87 0 41.66 118.16 42.36 -118.16 55.49 0 0 169.56 -38.23 0 0 -111.63 -41.06 111.63 -38.5 0 -39.37 -111.63 0 111.63 -38.23 0 0 -169.56zm338.36 115.98l44.76 7.52c-5.72,16.39 -14.81,28.86 -27.17,37.46 -12.41,8.55 -27.93,12.85 -46.5,12.85 -29.46,0 -51.29,-9.64 -65.4,-28.91 -11.16,-15.47 -16.77,-34.96 -16.77,-58.54 0,-28.1 7.35,-50.15 22,-66.05 14.65,-15.96 33.21,-23.91 55.65,-23.91 25.16,0 45.03,8.33 59.62,25 14.54,16.66 21.51,42.2 20.86,76.61l-112.06 0c0.32,13.29 3.92,23.63 10.83,31.04 6.86,7.41 15.47,11.11 25.7,11.11 7.02,0 12.91,-1.9 17.64,-5.72 4.79,-3.81 8.38,-9.97 10.83,-18.46zm2.61 -45.41c-0.32,-13.02 -3.65,-22.92 -10.02,-29.68 -6.37,-6.81 -14.1,-10.18 -23.25,-10.18 -9.75,0 -17.81,3.59 -24.18,10.73 -6.37,7.13 -9.47,16.88 -9.37,29.13l66.81 0zm79.45 -70.57l44.76 0 0 133.3 64.37 0 0 -133.3 44.76 0 0 133.3 17.64 0 0 81.02 -36.26 0 0 -44.76 -135.26 0 0 -169.56zm200.49 0l44.76 0 0 69.26c7.46,-0.87 12.74,-3.16 15.84,-6.86 3.05,-3.7 6.81,-11.81 11.17,-24.34 5.77,-16.72 12.03,-27.34 18.89,-32.02 6.81,-4.69 15.74,-7.02 26.84,-7.02 3.43,0 9.31,0.27 17.75,0.82l0.16 29.57c-11.87,0 -19.44,1.09 -22.71,3.32 -3.32,2.34 -6.91,9.31 -10.73,20.91 -5.23,15.57 -12.8,25.21 -22.6,28.81 14.16,3.92 26.14,16.28 35.94,37.03 0.49,1.09 1.09,2.18 1.74,3.38l25.05 46.72 -48.19 0 -22.33 -49.17c-4.57,-9.91 -8.55,-16.28 -11.93,-19.11 -3.32,-2.83 -8.33,-4.25 -14.92,-4.25l0 72.53 -44.76 0 0 -169.56zm150.72 82.71c0,-14.92 3.65,-29.35 11,-43.29 7.35,-14 17.75,-24.61 31.2,-31.96 13.45,-7.35 28.42,-11.05 45.03,-11.05 25.65,0 46.61,8.33 63,25 16.39,16.72 24.56,37.73 24.56,63.22 0,25.7 -8.28,46.99 -24.78,63.87 -16.55,16.88 -37.35,25.32 -62.46,25.32 -15.52,0 -30.33,-3.54 -44.43,-10.56 -14.05,-7.02 -24.78,-17.32 -32.13,-30.93 -7.35,-13.56 -11,-30.11 -11,-49.61zm46.07 2.4c0,16.83 3.97,29.73 11.92,38.66 8.01,8.99 17.81,13.45 29.51,13.45 11.65,0 21.45,-4.46 29.35,-13.45 7.89,-8.93 11.87,-21.94 11.87,-38.99 0,-16.6 -3.98,-29.4 -11.87,-38.33 -7.9,-8.98 -17.7,-13.45 -29.35,-13.45 -11.71,0 -21.51,4.47 -29.51,13.45 -7.95,8.93 -11.92,21.83 -11.92,38.66zm162.65 -85.11l43.13 0 0 106.56 68.94 -106.56 44.11 0 0 169.56 -43.13 0 0 -108.09 -69.92 108.09 -43.13 0 0 -169.56zm106.84 -68.28l21.89 0c-1.25,14.43 -6.37,25.81 -15.24,34.03 -8.88,8.22 -20.36,12.36 -34.47,12.36 -14.16,0 -25.64,-4.14 -34.52,-12.36 -8.88,-8.22 -14,-19.6 -15.25,-34.03l21.89 0c0.76,7.51 3.38,13.23 7.95,17.1 4.57,3.87 11.21,5.77 19.93,5.77 8.66,0 15.3,-1.9 19.88,-5.77 4.57,-3.87 7.19,-9.58 7.95,-17.1zm-1461.93 424.4l55.87 0 41.66 118.16 42.36 -118.16 55.49 0 0 169.56 -38.23 0 0 -111.63 -41.06 111.63 -38.5 0 -39.37 -111.63 0 111.63 -38.23 0 0 -169.56zm338.36 115.98l44.76 7.52c-5.72,16.39 -14.81,28.86 -27.17,37.46 -12.41,8.55 -27.93,12.85 -46.5,12.85 -29.46,0 -51.29,-9.64 -65.4,-28.91 -11.16,-15.47 -16.77,-34.96 -16.77,-58.54 0,-28.1 7.35,-50.15 22,-66.05 14.65,-15.96 33.21,-23.91 55.65,-23.91 25.16,0 45.03,8.33 59.62,25 14.54,16.66 21.51,42.2 20.86,76.61l-112.06 0c0.32,13.29 3.92,23.63 10.83,31.04 6.86,7.41 15.47,11.11 25.7,11.11 7.02,0 12.91,-1.9 17.64,-5.72 4.79,-3.81 8.38,-9.97 10.83,-18.46zm2.61 -45.41c-0.32,-13.02 -3.65,-22.92 -10.02,-29.68 -6.37,-6.81 -14.1,-10.18 -23.25,-10.18 -9.75,0 -17.81,3.59 -24.18,10.73 -6.37,7.13 -9.47,16.88 -9.37,29.13l66.81 0zm221.24 98.99l-128.4 0 0 44.76 -36.26 0 0 -81.35 18.3 0c7.62,-8.55 13.88,-21.83 18.89,-39.97 4.96,-18.08 7.95,-49.12 8.88,-93l136.89 0 0 132.97 18.3 0 0 81.35 -36.59 0 0 -44.76zm-26.14 -36.59l0.16 -96.05 -54.4 0c-1.8,46.88 -9.2,78.9 -22.22,96.05l76.45 0zm92.08 -132.97l43.13 0 0 106.56 68.94 -106.56 44.11 0 0 169.56 -43.13 0 0 -108.09 -69.92 108.09 -43.13 0 0 -169.56zm200.49 0l44.76 0 0 133.3 64.37 0 0 -133.3 44.76 0 0 133.3 17.64 0 0 81.02 -36.26 0 0 -44.76 -135.26 0 0 -169.56zm201.15 0l43.13 0 0 106.56 68.94 -106.56 44.11 0 0 169.56 -43.13 0 0 -108.09 -69.92 108.09 -43.13 0 0 -169.56zm200.17 0l44.76 0 0 62.08 64.69 0 0 -62.08 44.76 0 0 169.56 -44.76 0 0 -71.22 -64.69 0 0 71.22 -44.76 0 0 -169.56zm199.62 0l44.76 0 0 70.57 45.09 0c17.7,0 31.2,1.25 40.51,3.76 9.31,2.5 17.21,7.95 23.63,16.33 6.48,8.39 9.69,18.3 9.69,29.62 0,16.39 -5.66,28.7 -16.93,36.92 -11.27,8.22 -28.21,12.36 -50.75,12.36l-96 0 0 -169.56zm44.76 140.81l41.82 0c10.84,0 18.79,-1.69 23.69,-5.07 4.9,-3.38 7.35,-8.88 7.35,-16.5 0,-8.11 -3.16,-13.72 -9.53,-16.72 -6.37,-2.99 -17.75,-4.52 -34.2,-4.52l-29.13 0 0 42.8zm144.41 -140.81l44.76 0 0 169.56 -44.76 0 0 -169.56z"/>
  <path class="fil1" d="M1231.71 171l278.93 0 0 335.95 35.57 0 0 156.4 -68.32 0 0 -88.08 -253.52 0 0 88.08 -68.32 0 0 -156.4 34.44 0c16.75,-34.54 27.85,-74.62 33.22,-120.17 5.36,-45.64 8,-103.33 8,-173.06l0 -42.72zm77.92 68.32c0,122.34 -11.29,211.55 -33.88,267.63l153.02 0 0 -267.63 -119.14 0zm263.62 136.26c0,-41.22 6.21,-75.85 18.54,-103.89 9.13,-20.61 21.74,-39.15 37.64,-55.52 15.9,-16.38 33.31,-28.52 52.23,-36.52 25.22,-10.63 54.3,-16 87.23,-16 59.66,0 107.28,18.54 143.13,55.52 35.76,37.08 53.64,88.55 53.64,154.52 0,65.4 -17.79,116.59 -53.26,153.48 -35.48,36.98 -83,55.43 -142.38,55.43 -60.13,0 -108.03,-18.35 -143.51,-55.15 -35.48,-36.7 -53.26,-87.33 -53.26,-151.88zm84.13 -2.73c0,45.83 10.64,80.55 31.81,104.27 21.17,23.62 48.09,35.48 80.65,35.48 32.66,0 59.38,-11.76 80.37,-35.19 20.89,-23.53 31.34,-58.72 31.34,-105.68 0,-46.39 -10.16,-81.02 -30.58,-103.8 -20.33,-22.87 -47.33,-34.26 -81.12,-34.26 -33.69,0 -60.88,11.58 -81.49,34.63 -20.61,23.15 -30.96,57.97 -30.96,104.55zm362.71 -201.85l302.08 0 0 68.32 -220.2 0 0 93.73 109.06 0c30.02,0 55.05,3.67 74.81,11.01 19.86,7.34 36.79,20.89 50.82,40.75 14.02,19.76 21.08,43.01 21.08,69.64 0,27.29 -7.06,50.72 -21.27,70.2 -14.12,19.39 -30.21,32.75 -48.37,39.9 -18.07,7.15 -43.85,10.73 -77.26,10.73l-190.75 0 0 -404.27zm81.87 335.95l79.33 0c25.31,0 43.19,-1.22 53.45,-3.67 10.26,-2.45 19.29,-8 26.91,-16.75 7.62,-8.66 11.39,-19.39 11.39,-32.09 0,-18.54 -6.68,-31.99 -19.95,-40.47 -13.36,-8.37 -36.04,-12.61 -68.22,-12.61l-82.91 0 0 105.59zm311.32 68.32l0 -404.27 130.9 0c49.59,0 81.87,1.97 96.93,6.02 23.15,6.11 42.53,19.29 58.16,39.62 15.62,20.33 23.43,46.58 23.43,78.76 0,24.84 -4.52,45.64 -13.46,62.58 -9.03,16.94 -20.42,30.21 -34.25,39.9 -13.83,9.6 -27.95,16 -42.25,19.1 -19.48,3.86 -47.62,5.84 -84.51,5.84l-53.07 0 0 152.45 -81.87 0zm81.87 -335.95l0 115.18 44.51 0c32.09,0 53.45,-2.16 64.27,-6.4 10.82,-4.24 19.29,-10.82 25.41,-19.95 6.11,-9.03 9.22,-19.48 9.22,-31.53 0,-14.77 -4.33,-26.91 -12.89,-36.51 -8.65,-9.6 -19.48,-15.62 -32.75,-18.07 -9.69,-1.79 -29.17,-2.73 -58.53,-2.73l-39.24 0zm286.01 -68.32l81.87 0 0 161.48 109.07 0c28.61,0 53.26,3.95 73.87,11.76 20.61,7.81 37.83,21.74 51.67,41.88 13.74,20.14 20.61,43.29 20.61,69.45 0,27.38 -7.15,50.91 -21.46,70.77 -14.4,19.76 -30.3,32.84 -47.9,39.24 -17.5,6.49 -43.19,9.69 -76.98,9.69l-190.75 0 0 -404.27zm81.87 335.95l79.61 0c25.32,0 43.01,-1.22 53.07,-3.67 9.98,-2.45 18.92,-8.09 26.73,-16.84 7.81,-8.75 11.67,-19.39 11.67,-31.99 0,-17.88 -6.4,-31.34 -19.1,-40.28 -12.8,-8.94 -35.86,-13.36 -69.07,-13.36l-82.91 0 0 106.15zm302.08 -335.95l81.87 0 0 404.27 -81.87 0 0 -404.27zm156.71 0l76.22 0 0 269.14 163.74 -269.14 81.31 0 0 404.27 -76.22 0 0 -264.81 -163.74 264.81 -81.31 0 0 -404.27zm208.91 -116.88l37.83 0c-2.17,24.94 -11.01,44.61 -26.35,58.82 -15.34,14.21 -35.2,21.36 -59.57,21.36 -24.47,0 -44.32,-7.15 -59.66,-21.36 -15.34,-14.21 -24.19,-33.88 -26.35,-58.82l37.83 0c1.32,12.99 5.84,22.87 13.74,29.55 7.9,6.68 19.39,9.98 34.44,9.98 14.96,0 26.44,-3.3 34.35,-9.98 7.9,-6.68 12.42,-16.56 13.74,-29.55zm-2330.65 642.32l321.27 0 0 404.27 -81.87 0 0 -335.95 -157.53 0 0 335.95 -81.87 0 0 -404.27zm393.76 404.27l0 -404.27 130.9 0c49.59,0 81.87,1.97 96.93,6.02 23.15,6.11 42.53,19.29 58.16,39.62 15.62,20.33 23.43,46.58 23.43,78.76 0,24.84 -4.52,45.64 -13.46,62.58 -9.03,16.94 -20.42,30.21 -34.25,39.9 -13.83,9.6 -27.95,16 -42.25,19.1 -19.48,3.86 -47.62,5.84 -84.51,5.84l-53.07 0 0 152.45 -81.87 0zm81.87 -335.95l0 115.18 44.51 0c32.09,0 53.45,-2.16 64.27,-6.4 10.82,-4.24 19.29,-10.82 25.41,-19.95 6.11,-9.03 9.22,-19.48 9.22,-31.53 0,-14.77 -4.33,-26.91 -12.89,-36.51 -8.65,-9.6 -19.48,-15.62 -32.75,-18.07 -9.69,-1.79 -29.17,-2.73 -58.53,-2.73l-39.24 0zm259.38 136.26c0,-41.22 6.21,-75.85 18.54,-103.89 9.13,-20.61 21.74,-39.15 37.64,-55.52 15.9,-16.38 33.31,-28.52 52.23,-36.52 25.22,-10.63 54.3,-16 87.23,-16 59.66,0 107.28,18.54 143.13,55.52 35.76,37.08 53.64,88.55 53.64,154.52 0,65.4 -17.79,116.59 -53.26,153.48 -35.48,36.98 -83,55.43 -142.38,55.43 -60.13,0 -108.03,-18.35 -143.51,-55.15 -35.48,-36.7 -53.26,-87.33 -53.26,-151.88zm84.13 -2.73c0,45.83 10.64,80.55 31.81,104.27 21.17,23.62 48.09,35.48 80.65,35.48 32.66,0 59.38,-11.76 80.37,-35.19 20.89,-23.53 31.34,-58.72 31.34,-105.68 0,-46.39 -10.16,-81.02 -30.58,-103.8 -20.33,-22.87 -47.33,-34.26 -81.12,-34.26 -33.69,0 -60.88,11.58 -81.49,34.63 -20.61,23.15 -30.96,57.97 -30.96,104.55zm364.97 -201.85l273.85 0 0 68.32 -191.98 0 0 335.95 -81.87 0 0 -404.27zm305.11 404.27l0 -404.27 81.87 0 0 159.22 159.22 0 0 -159.22 81.87 0 0 404.27 -81.87 0 0 -176.73 -159.22 0 0 176.73 -81.87 0zm379.84 -199.69c0,-41.22 6.21,-75.85 18.54,-103.89 9.13,-20.61 21.74,-39.15 37.64,-55.52 15.9,-16.38 33.31,-28.52 52.23,-36.52 25.22,-10.63 54.3,-16 87.23,-16 59.66,0 107.28,18.54 143.13,55.52 35.76,37.08 53.64,88.55 53.64,154.52 0,65.4 -17.79,116.59 -53.26,153.48 -35.48,36.98 -83,55.43 -142.38,55.43 -60.13,0 -108.03,-18.35 -143.51,-55.15 -35.48,-36.7 -53.26,-87.33 -53.26,-151.88zm84.13 -2.73c0,45.83 10.64,80.55 31.81,104.27 21.17,23.62 48.09,35.48 80.65,35.48 32.66,0 59.38,-11.76 80.37,-35.19 20.89,-23.53 31.34,-58.72 31.34,-105.68 0,-46.39 -10.16,-81.02 -30.58,-103.8 -20.33,-22.87 -47.33,-34.26 -81.12,-34.26 -33.69,0 -60.88,11.58 -81.49,34.63 -20.61,23.15 -30.96,57.97 -30.96,104.55zm418.61 -91.75l-79.61 -18.63c17.13,-65.87 65.78,-98.81 145.96,-98.81 47.43,0 83.28,10.45 107.46,31.34 24.19,20.89 36.23,45.45 36.23,73.68 0,19.29 -5.55,36.7 -16.56,52.32 -11.01,15.53 -27.58,29.17 -49.59,41.03 26.73,9.22 46.86,22.21 60.22,39.05 13.36,16.94 20.04,37.64 20.04,62.39 0,35.57 -12.99,64.27 -39.05,86.2 -25.97,21.93 -64.93,32.94 -116.79,32.94 -42.25,0 -75.66,-7.06 -100.13,-21.17 -24.47,-14.12 -42.82,-40.56 -55.14,-79.33l74.53 -24.28c7.72,24.38 18.07,40.18 30.87,47.34 12.8,7.25 28.61,10.82 47.43,10.82 25.79,0 44.61,-5.55 56.46,-16.75 11.76,-11.2 17.69,-23.99 17.69,-38.49 0,-16.56 -6.68,-30.02 -20.04,-40.18 -13.27,-10.16 -33.41,-15.24 -60.23,-15.24l-18.54 0 0 -60.98 9.31 0c24.94,0 44.04,-5.65 57.22,-16.84 13.27,-11.2 19.86,-26.16 19.86,-44.7 0,-14.78 -5.36,-27.19 -16.09,-37.36 -10.73,-10.07 -26.07,-15.15 -46.02,-15.15 -34.16,0 -55.99,16.94 -65.5,50.82z"/>
  <g>
   <polygon class="fil2" points="3909.32,1094.07 3909.32,86.98 3944.82,86.98 3944.82,1094.07 "/>
  </g>
  <polygon class="fil3" points="477.21,648.25 153.08,840.7 325.26,526.69 82.17,364.63 365.79,334.24 456.96,0 629.13,243.09 1145.71,131.67 750.69,476.05 1054.54,1043.27 "/>
  <path class="fil4" d="M153.08 840.7l172.18 -314 -243.09 -162.06 283.62 -30.39 91.17 -334.24 115.04 162.42c46.23,276.22 -204.94,551.24 -418.91,678.28z"/>
  <path class="fil5" d="M150.93 844.05c291.06,169.17 589.08,244.31 903.63,201.28 -348.7,78.72 -667.77,32.15 -952.1,-112.96l48.47 -88.32z"/>
  <path class="fil6" d="M91.24 952.75c238.16,125.13 492.03,182.32 747.92,147.32 -282.52,63.78 -554.63,31.03 -789.04,-72.43l41.11 -74.88z"/>
  <path class="fil7" d="M31.03 1062.4c132.96,69.23 311.15,113.83 478.22,108.03 -176.95,39.94 -362.42,13.3 -509.25,-51.51l31.03 -56.52z"/>
 </g>
</svg>
