<?xml version="1.0" encoding="UTF-8"?>
<!DOCTYPE svg PUBLIC "-//W3C//DTD SVG 1.1//EN" "http://www.w3.org/Graphics/SVG/1.1/DTD/svg11.dtd">
<!-- Creator: CorelDRAW 2017 -->
<svg xmlns="http://www.w3.org/2000/svg" xml:space="preserve" width="82px" height="65px" version="1.1" style="shape-rendering:geometricPrecision; text-rendering:geometricPrecision; image-rendering:optimizeQuality; fill-rule:evenodd; clip-rule:evenodd"
viewBox="0 0 82 65"
 xmlns:xlink="http://www.w3.org/1999/xlink">
 <defs>
  <style type="text/css">
   <![CDATA[
    .fil0 {fill:#fee0cd;fill-rule:nonzero}
   ]]>
  </style>
 </defs>
 <g id="Layer_x0020_1">
  <metadata id="CorelCorpID_0Corel-Layer"/>
  <path class="fil0" d="M39.45 63.07l-3.81 -52.21c-0.84,8.78 -2.38,16.98 -4.65,24.58 -2.27,7.6 -4.84,13.47 -7.72,17.62 -2.86,4.15 -5.81,7.08 -8.82,8.75 -2.99,1.67 -5.97,2.51 -8.91,2.51 -1.79,0 -3.14,-0.36 -4.12,-1.09 -0.94,-0.71 -1.42,-1.58 -1.42,-2.63 0,-0.86 0.35,-1.63 1.05,-2.27 0.69,-0.64 1.57,-0.96 2.64,-0.96 0.79,0 1.89,0.16 3.35,0.5 1.32,0.33 2.44,0.49 3.31,0.49 1.53,0 3.11,-0.56 4.75,-1.68 2.5,-1.69 4.98,-4.71 7.42,-9.05 2.44,-4.36 4.62,-10.42 6.55,-18.18 1.92,-7.76 3.13,-15.35 3.61,-22.76 -7.34,0 -13.29,1.83 -17.87,5.49 -3.66,2.91 -5.48,6.16 -5.48,9.77 0,1.57 0.86,3.49 2.59,5.73 0.93,1.19 1.4,2.16 1.4,2.9 0,0.85 -0.26,1.55 -0.8,2.1 -0.56,0.55 -1.18,0.83 -1.92,0.83 -1.27,0 -2.37,-0.72 -3.35,-2.14 -1.32,-1.91 -1.99,-4.17 -1.99,-6.79 0,-3.68 1.25,-7.21 3.71,-10.58 2.47,-3.37 5.9,-5.95 10.26,-7.72 4.38,-1.76 9.51,-2.65 15.38,-2.69 3.17,0 5.7,-0.3 7.6,-0.9 -0.07,2.88 -0.1,4.43 -0.08,4.67 0.01,0.27 0.04,0.94 0.11,1.99l2.85 36.86c7.78,-13.62 15.38,-24.83 22.82,-33.62 5.38,-6.21 10.08,-10.41 14.06,-12.59 -2.25,6.15 -4.65,14.25 -7.24,24.29l-5.96 23.27c-0.33,1.3 -0.75,3.19 -1.32,5.69l-1.18 5.19c2.43,0.52 4.67,0.79 6.67,0.79 1.65,0 3.38,-0.15 5.25,-0.49l-0.59 2.78c-1.66,0.26 -2.94,0.39 -3.84,0.39 -1.33,0 -3.24,-0.13 -5.73,-0.42 -2.05,-0.25 -3.85,-0.38 -5.45,-0.38 -1.69,0 -3.59,0.33 -5.73,0.99 1.79,-4.65 3.65,-10.92 5.6,-18.77l3.73 -14.84c1.59,-6.41 2.97,-10.81 4.15,-13.2 -2.61,2.95 -6.62,8.34 -12.04,16.24 -4.36,6.34 -9.23,14.37 -14.62,24.09l-4.25 7.44 0.03 0.01z"/>
 </g>
</svg>
