<?xml version="1.0" encoding="UTF-8"?>
<!DOCTYPE svg PUBLIC "-//W3C//DTD SVG 1.1//EN" "http://www.w3.org/Graphics/SVG/1.1/DTD/svg11.dtd">
<!-- Creator: CorelDRAW 2017 -->
<svg xmlns="http://www.w3.org/2000/svg" xml:space="preserve" width="376px" height="330px" version="1.1" style="shape-rendering:geometricPrecision; text-rendering:geometricPrecision; image-rendering:optimizeQuality; fill-rule:evenodd; clip-rule:evenodd"
viewBox="0 0 29.71 23.76"
 xmlns:xlink="http://www.w3.org/1999/xlink">
 <defs>
  <style type="text/css">
   <![CDATA[
    .fil0 {fill:#FDC6A5;fill-rule:nonzero}
   ]]>
  </style>
 </defs>
 <g id="Layer_x0020_1">
  <metadata id="CorelCorpID_0Corel-Layer"/>
  <path class="fil0" d="M18.53 21.83c0.12,0.01 0.39,0.05 0.8,0.11 0.64,0.11 1.15,0.16 1.55,0.16 0.48,0 1,-0.06 1.56,-0.17l-0.22 0.96c-0.56,0.07 -1,0.1 -1.31,0.1 -0.48,0 -1.12,-0.04 -1.91,-0.12 -0.85,-0.08 -1.58,-0.12 -2.18,-0.12 -0.52,0 -1.01,0.08 -1.49,0.24 0.4,-1.07 1.11,-3.66 2.14,-7.78 1.31,-5.18 2.49,-8.79 3.56,-10.82 -1.04,0.03 -1.82,0.05 -2.36,0.05 -1.56,0 -3.21,-0.08 -4.96,-0.23 -0.56,1.35 -1.36,4.15 -2.44,8.43 -1.17,4.7 -2.49,7.72 -3.93,9.08 -1.44,1.35 -2.85,2.02 -4.24,2.02 -0.76,0 -1.47,-0.17 -2.13,-0.52 -0.66,-0.34 -0.99,-0.79 -0.99,-1.32 0,-0.29 0.1,-0.53 0.29,-0.72 0.2,-0.19 0.42,-0.29 0.66,-0.29 0.45,0 0.9,0.3 1.36,0.92 0.44,0.58 0.85,0.87 1.25,0.87 0.98,0 1.85,-0.8 2.62,-2.41 0.77,-1.61 1.84,-5 3.21,-10.18l1.56 -5.87c-2.5,0.01 -4.34,0.54 -5.54,1.6 -1.19,1.05 -1.79,2.29 -1.79,3.7 0,0.39 0.06,0.7 0.17,0.94 0.11,0.23 0.36,0.57 0.74,1.01 0.38,0.41 0.57,0.79 0.57,1.14 0,0.3 -0.11,0.56 -0.34,0.77 -0.23,0.21 -0.5,0.32 -0.8,0.32 -0.57,0 -1.01,-0.33 -1.32,-0.97 -0.31,-0.65 -0.46,-1.39 -0.46,-2.21 0,-2.14 0.91,-4.01 2.74,-5.62 1.83,-1.6 4.11,-2.41 6.87,-2.41 0.92,0 2.22,0.07 3.9,0.22 3.36,0.32 6.7,0.47 10.03,0.47 1.27,0 1.9,-0.42 1.9,-1.28 0,-0.07 -0.02,-0.23 -0.05,-0.46 -0.03,-0.21 -0.05,-0.35 -0.05,-0.43 0,-0.3 0.1,-0.54 0.3,-0.73 0.2,-0.19 0.44,-0.29 0.72,-0.29 0.34,0 0.61,0.12 0.83,0.37 0.22,0.25 0.33,0.57 0.33,0.97 0,0.78 -0.41,1.48 -1.23,2.11 -0.81,0.63 -2.15,0.96 -4.01,0.99 -0.57,0.01 -0.91,0.02 -1.03,0.03 -1.8,4.54 -3.44,10.33 -4.92,17.36z"/>
 </g>
</svg>
