<?xml version="1.0" encoding="UTF-8"?>
<!DOCTYPE svg PUBLIC "-//W3C//DTD SVG 1.1//EN" "http://www.w3.org/Graphics/SVG/1.1/DTD/svg11.dtd">
<!-- Creator: CorelDRAW 2017 -->
<svg xmlns="http://www.w3.org/2000/svg" xml:space="preserve" width="376px" height="330px"  version="1.1" style="shape-rendering:geometricPrecision; text-rendering:geometricPrecision; image-rendering:optimizeQuality; fill-rule:evenodd; clip-rule:evenodd"
viewBox="0 0 36.45 36.69"
 xmlns:xlink="http://www.w3.org/1999/xlink">
 <defs>
  <style type="text/css">
   <![CDATA[
    .fil0 {fill:#FDC6A5;fill-rule:nonzero}
   ]]>
  </style>
 </defs>
 <g id="Layer_x0020_1">
  <metadata id="CorelCorpID_0Corel-Layer"/>
  <path class="fil0" d="M14.37 7.33l0.36 -1.35c2.89,-0.29 5.36,-0.7 7.41,-1.22 -0.47,1.4 -0.98,3.21 -1.52,5.46l-2.26 8.44 2.76 0.06c1.28,0.06 2.68,-0.26 4.19,-0.95 1.51,-0.7 2.86,-1.92 4.05,-3.66 1.19,-1.75 1.79,-3.64 1.79,-5.66 0,-2.01 -0.73,-3.59 -2.17,-4.77 -1.46,-1.17 -3.67,-1.75 -6.66,-1.75 -3.41,0 -6.74,0.84 -10,2.53 -3.27,1.68 -5.79,3.85 -7.56,6.47 -1.77,2.63 -2.66,5.22 -2.66,7.78 0,1.26 0.23,2.36 0.69,3.28 0.46,0.93 1.28,1.85 2.46,2.75 0.98,0.72 1.47,1.42 1.47,2.09 0,0.44 -0.16,0.81 -0.48,1.11 -0.32,0.3 -0.7,0.45 -1.14,0.45 -1.19,0 -2.33,-0.81 -3.44,-2.43 -1.1,-1.62 -1.65,-3.67 -1.65,-6.15 0,-4.55 1.74,-8.68 5.23,-12.43 4.57,-4.92 10.7,-7.38 18.41,-7.38 2.92,0 5.33,0.38 7.19,1.14 1.88,0.76 3.28,1.8 4.22,3.12 0.93,1.31 1.4,2.75 1.4,4.29 0,1.95 -0.66,3.88 -1.97,5.77 -1.31,1.89 -3.24,3.42 -5.8,4.58 -2.54,1.16 -5.39,1.73 -8.51,1.73 -0.48,0 -1.23,-0.02 -2.26,-0.06l-2.43 9.35c-0.39,1.58 -0.83,3.15 -1.31,4.69 1.56,0.37 2.92,0.55 4.08,0.55 1.47,0 3.04,-0.27 4.72,-0.8l-0.36 1.66c-1.56,0.41 -2.88,0.62 -3.97,0.62 -1.04,0 -2.57,-0.1 -4.57,-0.32 -1.6,-0.19 -2.9,-0.3 -3.91,-0.3 -1.94,0 -3.93,0.23 -5.97,0.68l0.36 -1.6c2.08,-0.34 3.5,-0.83 4.26,-1.47 1.09,-0.9 1.97,-2.71 2.65,-5.42l4.54 -18c0.21,-0.82 0.31,-1.41 0.31,-1.73 0,-0.32 -0.13,-0.6 -0.39,-0.84 -0.27,-0.25 -0.57,-0.37 -0.93,-0.37 -0.14,0 -0.35,0.02 -0.61,0.06z"/>
 </g>
</svg>
